Coordinates
version=1
nRows=11
nColumns=63
inDegrees=yes

Units are S.I. units (second, meters, Newtons, ...)
If the header above contains a line with 'inDegrees', this indicates whether rotational values are in degrees (yes) or radians (no).

endheader
time	pelvis_tilt	pelvis_list	pelvis_rotation	pelvis_tx	pelvis_ty	pelvis_tz	hip_flexion_r	hip_adduction_r	hip_rotation_r	knee_angle_r	knee_angle_r_beta	ankle_angle_r	subtalar_angle_r	mtp_angle_r	hip_flexion_l	hip_adduction_l	hip_rotation_l	knee_angle_l	knee_angle_l_beta	ankle_angle_l	subtalar_angle_l	mtp_angle_l	L5_S1_Flex_Ext	L5_S1_Lat_Bending	L5_S1_axial_rotation	L4_L5_Flex_Ext	L4_L5_Lat_Bending	L4_L5_axial_rotation	L3_L4_Flex_Ext	L3_L4_Lat_Bending	L3_L4_axial_rotation	L2_L3_Flex_Ext	L2_L3_Lat_Bending	L2_L3_axial_rotation	L1_L2_Flex_Ext	L1_L2_Lat_Bending	L1_L2_axial_rotation	L1_T12_Flex_Ext	L1_T12_Lat_Bending	L1_T12_axial_rotation	Abs_r3	Abs_r2	Abs_r1	Abs_t1	Abs_t2	neck_flexion	neck_bending	neck_rotation	arm_flex_r	arm_add_r	arm_rot_r	elbow_flex_r	pro_sup_r	wrist_flex_r	wrist_dev_r	arm_flex_l	arm_add_l	arm_rot_l	elbow_flex_l	pro_sup_l	wrist_flex_l	wrist_dev_l
0.000000	9.015104	-5.859976	95.669156	0.215879	0.814131	0.715530	2.532749	8.813209	-13.835843	13.502048	0.235655	33.503632	7.422902	0.000000	8.466188	-9.921714	-3.262077	21.560439	0.376301	41.352511	9.726919	0.000000	0.191632	1.183711	-1.607942	0.355880	1.574336	-1.708438	0.314832	2.878075	-1.708438	0.219016	2.878075	-1.406949	0.177950	2.413823	-1.306453	0.109499	1.833568	-1.205956	1.368809	13.390375	-8.942889	0.000000	0.000000	25.973842	-2.227668	5.115831	22.607450	0.768291	99.323799	18.289465	11.381207	-0.648481	9.247279	22.622682	11.099183	169.122436	4.229589	3.123607	-11.861502	-9.331587
0.016949	9.137296	-5.528685	94.417149	0.216916	0.815115	0.714603	2.404107	8.730167	-14.170065	13.947378	0.243428	34.311790	9.819662	0.000000	7.518395	-10.291927	-5.392915	21.166463	0.369424	41.852437	10.539819	0.000000	0.157860	1.210816	-1.461015	0.293163	1.610385	-1.552328	0.259349	2.943978	-1.552328	0.180419	2.943978	-1.278388	0.146589	2.469096	-1.187074	0.090201	1.875554	-1.095761	1.127581	13.696992	-8.125725	0.000000	0.000000	25.185771	-2.290379	5.549314	22.874552	1.407092	107.712382	17.151180	10.089281	0.178483	7.465039	22.529251	11.330004	167.359672	4.257948	2.160945	-9.635026	-9.593757
0.033898	9.221352	-5.220560	93.317931	0.217910	0.815904	0.713572	2.190968	8.670462	-14.252888	14.222428	0.248228	34.897485	11.616858	0.000000	6.583868	-10.570335	-7.264670	20.712076	0.361494	42.219493	11.276745	0.000000	0.129859	1.231990	-1.331523	0.241162	1.638546	-1.414743	0.213346	2.995460	-1.414743	0.148416	2.995460	-1.165082	0.120587	2.512274	-1.081862	0.074202	1.908352	-0.998642	0.927572	13.936514	-7.405531	0.000000	0.000000	24.535862	-2.316801	5.987916	23.047708	1.921039	114.434011	16.228772	9.005377	0.801460	5.938705	22.427055	11.350097	164.202315	4.703462	1.642015	-7.887629	-9.683558
0.050847	9.270402	-4.935395	92.359110	0.218860	0.816518	0.712459	1.904399	8.631166	-14.104776	14.343105	0.250334	35.280910	12.865696	0.000000	5.667215	-10.764169	-8.893151	20.205696	0.352656	42.465233	11.938050	0.000000	0.107166	1.247717	-1.217945	0.199018	1.659464	-1.294066	0.176063	3.033699	-1.294066	0.122480	3.033699	-1.065701	0.099514	2.544344	-0.989580	0.061235	1.932714	-0.913458	0.765475	14.114424	-6.773842	0.000000	0.000000	24.011106	-2.311539	6.427737	23.137181	2.321001	119.630811	15.504439	8.113319	1.243536	4.652314	22.320381	11.190544	159.913166	5.495110	1.507922	-6.566222	-9.625176
0.067797	9.287575	-4.672983	91.528293	0.219764	0.816975	0.711282	1.555463	8.609351	-13.746191	14.325317	0.250024	35.482256	13.617383	0.000000	4.773045	-10.880661	-10.294166	19.655740	0.343057	42.601211	12.524087	0.000000	0.089317	1.258482	-1.118757	0.165871	1.673781	-1.188680	0.146739	3.059874	-1.188680	0.102080	3.059874	-0.978913	0.082940	2.566297	-0.908990	0.051036	1.949389	-0.839068	0.637982	14.236202	-6.222193	0.000000	0.000000	23.598495	-2.279201	6.864878	23.153235	2.617846	123.444909	14.960380	7.396930	1.527793	3.589908	22.213514	10.882426	154.755026	6.561867	1.699770	-5.617714	-9.442796
0.084746	9.276001	-4.433117	90.813087	0.220622	0.817297	0.710063	1.155226	8.602089	-13.197596	14.184973	0.247574	35.521713	13.923125	0.000000	3.905967	-10.927041	-11.483523	19.070628	0.332845	42.638983	13.035209	0.000000	0.075850	1.264770	-1.032440	0.140860	1.682144	-1.096967	0.124613	3.075162	-1.096967	0.086688	3.075162	-0.903385	0.070434	2.579119	-0.838857	0.043340	1.959129	-0.774330	0.541786	14.307331	-5.742120	0.000000	0.000000	23.285021	-2.224394	7.295439	23.106133	2.822443	126.018429	14.578793	6.840036	1.677315	2.735525	22.110741	10.456824	148.990696	7.832711	2.158666	-4.989019	-9.160606
0.101695	9.238809	-4.215590	90.201099	0.221433	0.817502	0.708823	0.714752	8.606451	-12.479454	13.937980	0.243264	35.419474	13.834128	0.000000	3.070589	-10.910541	-12.477032	18.458777	0.322166	42.590100	13.471769	0.000000	0.066301	1.267065	-0.957469	0.123127	1.685196	-1.017311	0.108925	3.080742	-1.017311	0.075775	3.080742	-0.837786	0.061567	2.583799	-0.777944	0.037884	1.962684	-0.718102	0.473579	14.333293	-5.325156	0.000000	0.000000	23.057676	-2.151723	7.715520	23.006139	2.945660	127.493497	14.341878	6.426461	1.715186	2.073205	22.016347	9.944821	142.882978	9.236618	2.825715	-4.627045	-8.802791
0.118644	9.179129	-4.020196	89.679937	0.222195	0.817612	0.707583	0.245107	8.619510	-11.612228	13.600246	0.237369	35.195729	13.401599	0.000000	2.271519	-10.838393	-13.290501	17.828604	0.311168	42.466119	13.834121	0.000000	0.060207	1.265852	-0.892324	0.111811	1.683583	-0.948094	0.098915	3.077792	-0.948094	0.068811	3.077792	-0.780783	0.055909	2.581325	-0.725013	0.034403	1.960804	-0.669243	0.430055	14.319568	-4.962838	0.000000	0.000000	22.903453	-2.065797	8.121223	22.863516	2.998366	128.012239	14.231834	6.140027	1.664488	1.586988	21.934619	9.377496	136.694674	10.702566	3.642021	-4.478704	-8.393536
0.135593	9.100092	-3.846727	89.237208	0.222908	0.817645	0.706362	-0.242646	8.638336	-10.616379	13.187679	0.230168	34.870669	12.676744	0.000000	1.513366	-10.717827	-13.939739	17.188529	0.299996	42.278593	14.122618	0.000000	0.057107	1.261615	-0.835482	0.106053	1.677948	-0.887699	0.093820	3.067490	-0.887699	0.065267	3.067490	-0.731047	0.053029	2.572685	-0.678829	0.032631	1.954241	-0.626611	0.407907	14.271639	-4.646699	0.000000	0.000000	22.809344	-1.971222	8.508648	22.688529	2.991428	127.716781	14.230858	5.964560	1.548307	1.260913	21.869843	8.785932	130.688584	12.159531	4.548692	-4.490908	-7.957030
0.152542	9.004826	-3.694976	88.860518	0.223570	0.817623	0.705181	-0.737440	8.660002	-9.512372	12.716187	0.221939	34.464487	11.710769	0.000000	0.800739	-10.556075	-14.440554	16.546968	0.288799	42.039076	14.337612	0.000000	0.056535	1.254839	-0.785421	0.104992	1.668936	-0.834510	0.092882	3.051015	-0.834510	0.064614	3.051015	-0.687243	0.052499	2.558867	-0.638154	0.032304	1.943745	-0.589066	0.403826	14.194988	-4.368275	0.000000	0.000000	22.762340	-1.872605	8.873897	22.491439	2.935716	126.749248	14.321150	5.883883	1.389725	1.079020	21.826304	8.201210	125.127510	13.536490	5.486831	-4.610567	-7.517456
0.169492	8.896461	-3.564737	88.537476	0.224181	0.817564	0.704062	-1.228212	8.681580	-8.320668	12.201678	0.212959	33.997374	10.554881	0.000000	0.138247	-10.360369	-14.808754	15.912341	0.277723	41.759123	14.479458	0.000000	0.058030	1.246008	-0.740619	0.107768	1.657191	-0.786908	0.095338	3.029545	-0.786908	0.066323	3.029545	-0.648042	0.053887	2.540860	-0.601753	0.033159	1.930067	-0.555464	0.414506	14.095096	-4.119101	0.000000	0.000000	22.749433	-1.774553	9.213068	22.282512	2.842097	125.251766	14.484908	5.881820	1.211826	1.025349	21.808290	7.654412	120.274254	14.762420	6.397544	-4.784592	-7.099003
